Coordinates
version=1
nRows=6
nColumns=36
inDegrees=yes

Units are S.I. units (second, meters, Newtons, ...)
If the header above contains a line with 'inDegrees', this indicates whether rotational values are in degrees (yes) or radians (no).

endheader
time	pelvis_tilt	pelvis_list	pelvis_rotation	pelvis_tx	pelvis_ty	pelvis_tz	hip_flexion_r	hip_adduction_r	hip_rotation_r	knee_angle_r	knee_angle_r_beta	ankle_angle_r	subtalar_angle_r	mtp_angle_r	hip_flexion_l	hip_adduction_l	hip_rotation_l	knee_angle_l	knee_angle_l_beta	ankle_angle_l	subtalar_angle_l	mtp_angle_l	lumbar_extension	lumbar_bending	lumbar_rotation	arm_flex_r	arm_add_r	arm_rot_r	elbow_flex_r	pro_sup_r	arm_flex_l	arm_add_l	arm_rot_l	elbow_flex_l	pro_sup_l
      0.00000000	      0.52698495	     -1.51685655	     -0.70575803	      0.36220627	      0.95996782	     -0.10982673	     -4.38283777	     -0.95341911	     -7.18578135	      6.06085035	      0.10578179	     -5.03715495	    -21.54899606	     -4.94549939	     -3.10593008	     -3.35303571	     -1.97910762	      5.56011703	      0.09704235	      3.65461002	    -10.65020461	     -4.94549939	     -4.91118603	      1.18906532	     -1.20056794	     -1.79379096	    -17.18746199	    -25.08604298	     25.17147942	     85.38817608	      2.79217680	    -13.21692531	     -9.46033005	     22.22494397	     78.35204524
      0.01666670	     -0.80550163	     -1.13493878	     -0.28383019	      0.36357435	      0.95457070	     -0.11043784	     -2.99546387	     -1.07299992	     -8.15293147	      5.97097636	      0.10421320	     -1.07717023	    -17.92757818	     -6.33144866	     -1.67726325	     -2.66803674	     -2.56418050	      4.98035269	      0.08692355	      4.32937526	     -8.20340482	     -6.33144866	     -2.89685714	      0.51919816	     -1.80451932	     -2.07157339	    -15.84727601	    -35.45948387	     27.02250379	     83.73273546	      3.22770266	    -11.03989418	    -27.93377498	     23.84777856	     88.74557688
      0.03333330	     -1.26338573	     -0.53948148	     -0.07142889	      0.36364976	      0.95614079	     -0.11034033	     -3.03333706	     -1.57801077	     -9.34833003	      4.86934307	      0.08498607	     -0.31279534	    -16.68207449	     -6.52427077	     -1.39153368	     -2.04796744	     -3.29367891	      4.58165130	      0.07996490	      4.59340352	     -6.25221479	     -6.52427077	     -2.31614207	     -0.49110032	     -1.98539379	     -2.31089249	    -15.41816524	    -38.68853231	     27.38025441	     79.73426601	      3.69273689	    -11.78102469	    -30.63690471	     23.88147899	     85.63939804
      0.05000000	     -1.63327855	     -0.25267384	      0.19581789	      0.36390788	      0.95331138	     -0.11059076	     -3.03160686	     -1.84931499	     -9.44130711	      4.05278656	      0.07073447	      0.37856114	    -16.50678152	     -6.59277911	     -1.38564771	     -1.65043380	     -3.28054046	      3.83649199	      0.06695942	      4.37909589	     -5.79505022	     -6.59277911	     -1.64025029	     -0.94106552	     -2.19047262	     -2.97379725	    -16.05864113	    -39.15586132	     28.60261321	     78.38015435	      3.03593699	    -12.55891486	    -30.93170140	     24.84283079	     84.28316322
      0.06666670	     -0.61895188	     -0.19354726	      0.57922852	      0.36330090	      0.95494353	     -0.11091197	     -4.62216150	     -1.73681249	     -9.80869933	      3.17664480	      0.05544291	      0.77254051	    -15.86960747	     -6.71295119	     -2.82971362	     -1.54013235	     -2.76423969	      3.03724204	      0.05300987	      4.04890082	     -5.38785481	     -6.71295119	     -3.17557646	     -0.97944221	     -2.04116714	     -2.73472158	    -15.17732780	    -47.18201892	     31.09572142	     73.55131642	      4.25600046	    -12.24558959	    -36.19514708	     26.05921680	     81.54816224
      0.08333330	     -0.16416274	     -0.13112935	      0.77664294	      0.36295913	      0.95854702	     -0.11095697	     -5.39590318	     -1.61479307	    -10.03842849	      2.64139086	      0.04610097	      0.84939422	    -16.00113927	     -6.87099240	     -3.42526699	     -1.39023638	     -2.54229165	      2.59473902	      0.04528674	      3.80517115	     -5.18365880	     -6.87099240	     -3.82841734	     -1.16354617	     -2.12949198	     -2.77065723	    -15.26520426	    -48.00095685	     32.34485840	     70.87174258	      4.46980542	    -12.72825294	    -36.99673271	     27.21898238	     78.57437467
